<?xml version="1.0" encoding="utf-8"?>
<!-- Generator: Adobe Illustrator 16.0.0, SVG Export Plug-In . SVG Version: 6.00 Build 0)  -->
<!DOCTYPE svg PUBLIC "-//W3C//DTD SVG 1.1//EN" "http://www.w3.org/Graphics/SVG/1.1/DTD/svg11.dtd">
<svg version="1.1" id="Layer_1" xmlns="http://www.w3.org/2000/svg" xmlns:xlink="http://www.w3.org/1999/xlink" x="0px" y="0px"
	 width="512px" height="512px" viewBox="0 0 512 512" enable-background="new 0 0 512 512" xml:space="preserve">
<g>
	<path d="M256.021,215.284c53.893,0,95.694-60.116,95.694-111.824c0-52.78-42.925-95.722-95.694-95.722
		c-52.792,0-95.731,42.941-95.731,95.722C160.29,155.168,202.091,215.284,256.021,215.284z M256.021,42.037
		c33.864,0,61.396,27.55,61.396,61.424c0,34.893-28.338,77.526-61.396,77.526c-33.095,0-61.433-42.633-61.433-77.526
		C194.588,69.587,222.138,42.037,256.021,42.037z"/>
	<path d="M404.554,327.747v-62.501c0-40.689-22.257-76.12-55.217-94.978c0.097,1.567,0.266,3.115,0.266,4.708
		c0,28.772-42.253,93.745-69.99,133.295l-11.369-55.779l12.063-12.063c1.44-1.44,1.441-3.776,0.001-5.217l-4.678-4.682
		c-2.884-2.887-6.797-4.509-10.877-4.509h-17.504c-4.081,0-7.994,1.622-10.878,4.509l-4.678,4.683
		c-1.439,1.441-1.438,3.776,0.002,5.217l12.062,12.063l-11.374,55.779c-27.732-39.558-69.985-104.523-69.985-133.295
		c0-1.592,0.167-3.141,0.284-4.708c-32.959,18.851-55.217,54.28-55.217,94.978v62.494c-24.654,0.87-44.45,21.042-44.45,45.888
		v84.583c0,25.392,20.648,46.049,46.04,46.049h293.871c25.391,0,46.058-20.658,46.058-46.049v-84.583
		C448.984,348.792,429.189,328.619,404.554,327.747z M414.687,458.212c0,6.479-5.256,11.747-11.756,11.747H109.06
		c-6.481,0-11.742-5.267-11.742-11.747v-84.586c0-6.482,5.261-11.749,11.742-11.749h293.871c6.5,0,11.756,5.267,11.756,11.749
		V458.212z"/>
	<path d="M197.772,390.758c4.557,0,8.411,0.749,11.534,1.739c0.781,0.248,1.63,0.163,2.347-0.235s1.237-1.074,1.44-1.868
		l2.058-8.027c0.386-1.504-0.449-3.055-1.918-3.558c-3.609-1.236-9.288-2.339-16.268-2.339c-23.111,0-41.699,14.512-41.699,40.582
		c0,21.763,13.598,38.201,40.01,38.201c7.376,0,13.393-1.071,17.152-2.308c1.427-0.469,2.275-1.921,1.99-3.396l-1.504-7.769
		c-0.157-0.812-0.645-1.521-1.345-1.959c-0.7-0.438-1.552-0.569-2.351-0.356c-3.288,0.879-7.471,1.501-11.35,1.501
		c-15.407,0-24.481-9.639-24.481-24.937C173.389,399.031,184.054,390.758,197.772,390.758z"/>
	<path d="M243.594,421.818h25.14c1.646,0,2.979-1.334,2.979-2.979v-8.101c0-1.646-1.334-2.979-2.979-2.979h-25.14v-15.869h26.828
		c1.645,0,2.979-1.334,2.979-2.979v-8.21c0-1.646-1.334-2.979-2.979-2.979h-41.2c-1.646,0-2.98,1.334-2.98,2.979v70.438
		c0,1.646,1.334,2.979,2.98,2.979h42.794c1.646,0,2.98-1.334,2.98-2.979v-8.21c0-1.646-1.334-2.979-2.98-2.979h-28.422V421.818z"/>
	<path d="M320.481,376.473c-22.557,0-37.162,17.116-37.162,40.01c0,21.763,13.248,38.88,35.906,38.88
		c22.342,0,37.53-15.19,37.53-40.244C356.756,394.042,343.946,376.473,320.481,376.473z M320.145,441.648
		c-11.57,0-18.588-10.543-18.588-25.498c0-14.857,6.799-25.96,18.471-25.96c11.91,0,18.489,11.782,18.489,25.499
		C338.518,430.542,331.822,441.648,320.145,441.648z"/>
</g>
</svg>
